# xmcd
#
# Track frame offsets:
# 170
# 19770
# 39335
#
# Disc length: 1166 seconds
#
# Revision: 0
# Processed by: cddbd v1.5.1PL0 Copyright (c) Steve Scherf et al.
# Submitted via: Audion 3.0.2 (http://www.panic.com/audion/)
#
DISCID=18048c03
DTITLE=Who I Am - Gary Wright
DYEAR=1900
DGENRE=
TTITLE0=Who I Am
TTITLE1=Dream Weaver
TTITLE2=Interview with Gary Wright
EXTD=
EXTT0=
EXTT1=
EXTT2=
PLAYORDER=
